<svg width="145" height="70" viewBox="0 0 145 70" fill="none" xmlns="http://www.w3.org/2000/svg">
<path d="M75.3831 8.91393L70.4307 17.8235L102.122 17.8268L107.41 8.9104L75.3831 8.91393Z" fill="#FD5108"/>
<path d="M112.691 0.00354372L107.738 8.91307L139.43 8.91638L144.717 0L112.691 0.00354372Z" fill="#FD5108"/>
<path d="M108.013 28.8627C102.955 29.7619 100.258 33.5833 100.258 40.2148C100.258 46.9587 103.854 51.4545 109.137 51.4545C111.722 51.4545 113.97 50.5554 118.691 48.195V53.7024C112.959 56.3998 109.587 57.0743 105.091 57.0743C100.033 57.0743 96.4365 55.838 93.6265 52.8032C90.7041 49.8808 89.1306 46.0593 89.1306 41.676C89.1306 32.1223 96.3239 25.4906 106.776 25.4906C113.633 25.4906 118.466 28.7502 118.466 33.3584C118.466 36.3931 116.218 38.5286 112.958 38.5286C111.272 38.5286 109.923 37.9666 108.013 36.955" fill="black"/>
<path d="M82.7241 41.6756C87.3324 35.9434 89.0184 33.583 89.0184 30.7731C89.0184 27.9631 86.7704 25.4904 83.6233 25.4904C81.8249 25.4904 80.139 26.5019 79.3522 27.4011V39.2028C71.8216 49.3185 71.8216 49.3185 71.8216 49.3185V26.3899H64.6283L52.7143 46.0594V26.3899H48.668L37.7655 28.8626V31.6726L43.7225 32.2346V56.6251H51.2531L62.7176 37.7425V56.6251H71.1473" fill="black"/>
<path d="M14.9486 52.8031H16.6345C22.7039 52.8031 26.0758 49.0941 26.0758 41.6759C26.0758 35.4942 23.3784 32.1222 18.3204 32.1222C17.646 32.1222 16.6345 32.2346 14.9484 32.5718L14.9486 52.8031ZM14.9486 66.066C19.8941 67.19 19.8941 67.19 19.8941 67.19V70H0.449603V67.19C4.94547 66.066 4.94547 66.066 4.94547 66.066V32.1216H0V29.3116L11.8017 25.715H14.9488V29.7612C20.4562 26.3893 22.367 25.8273 25.2893 25.8273C31.8083 25.8273 36.7538 31.8967 36.7538 40.3265C36.7538 49.9925 30.1224 56.6236 20.0066 56.6236C18.8826 56.6236 16.9719 56.5112 14.9488 56.3988" fill="black"/>
</svg>

