<svg width="454" height="91" viewBox="0 0 454 91" fill="none" xmlns="http://www.w3.org/2000/svg">
<path d="M0.76001 90.9369V26.8569H20.272V34.0569H8.60801L9.04001 33.4809V84.6009L8.32001 83.7369H20.272V90.9369H0.76001ZM190.778 90.9369V83.7369H202.442L202.01 84.3129V33.1929L202.73 34.0569H190.778V26.8569H210.29V90.9369H190.778Z" fill="#E8C766"/>
<path d="M45.9169 77.9769C42.3649 77.9769 39.1729 77.1129 36.3409 75.3849C33.5089 73.6569 31.2769 71.3049 29.6449 68.3289C28.0129 65.3529 27.1969 61.9929 27.1969 58.2489C27.1969 54.5049 28.0129 51.1449 29.6449 48.1689C31.2769 45.1929 33.5089 42.8409 36.3409 41.1129C39.1729 39.3849 42.3649 38.5209 45.9169 38.5209C49.3249 38.5209 52.4209 39.1689 55.2049 40.4649C57.9889 41.7609 60.1489 43.5609 61.6849 45.8649L56.7889 51.7689C56.0689 50.7609 55.1569 49.8489 54.0529 49.0329C52.9489 48.2169 51.7729 47.5689 50.5249 47.0889C49.2769 46.6089 48.0289 46.3689 46.7809 46.3689C44.6689 46.3689 42.7729 46.8969 41.0929 47.9529C39.4609 48.9609 38.1649 50.3769 37.2049 52.2009C36.2449 53.9769 35.7649 55.9929 35.7649 58.2489C35.7649 60.5049 36.2449 62.5209 37.2049 64.2969C38.2129 66.0729 39.5569 67.4889 41.2369 68.5449C42.9169 69.6009 44.7889 70.1289 46.8529 70.1289C48.1009 70.1289 49.3009 69.9369 50.4529 69.5529C51.6529 69.1209 52.7809 68.5209 53.8369 67.7529C54.8929 66.9849 55.8769 66.0249 56.7889 64.8729L61.6849 70.8489C60.0529 72.9609 57.7969 74.6889 54.9169 76.0329C52.0849 77.3289 49.0849 77.9769 45.9169 77.9769ZM82.7854 77.9769C79.6654 77.9769 76.8334 77.1129 74.2894 75.3849C71.7454 73.6569 69.7054 71.3049 68.1694 68.3289C66.6334 65.3529 65.8654 61.9689 65.8654 58.1769C65.8654 54.3849 66.6334 51.0009 68.1694 48.0249C69.7054 45.0489 71.7934 42.7209 74.4334 41.0409C77.0734 39.3609 80.0494 38.5209 83.3614 38.5209C85.2814 38.5209 87.0334 38.8089 88.6174 39.3849C90.2014 39.9129 91.5934 40.6809 92.7934 41.6889C93.9934 42.6969 94.9774 43.8489 95.745 45.1449C96.561 46.4409 97.113 47.8329 97.401 49.3209L95.457 48.8169V39.3129H104.385V77.2569H95.385V68.1849L97.473 67.8249C97.137 69.1209 96.513 70.3929 95.601 71.6409C94.7374 72.8409 93.6334 73.9209 92.2894 74.8809C90.9934 75.7929 89.5294 76.5369 87.8974 77.1129C86.3134 77.6889 84.6094 77.9769 82.7854 77.9769ZM85.2334 70.1289C87.2974 70.1289 89.1214 69.6249 90.7054 68.6169C92.2894 67.6089 93.5134 66.2169 94.3774 64.4409C95.289 62.6169 95.745 60.5289 95.745 58.1769C95.745 55.8729 95.289 53.8329 94.3774 52.0569C93.5134 50.2809 92.2894 48.8889 90.7054 47.8809C89.1214 46.8729 87.2974 46.3689 85.2334 46.3689C83.1694 46.3689 81.3454 46.8729 79.7614 47.8809C78.2254 48.8889 77.0254 50.2809 76.1614 52.0569C75.2974 53.8329 74.8654 55.8729 74.8654 58.1769C74.8654 60.5289 75.2974 62.6169 76.1614 64.4409C77.0254 66.2169 78.2254 67.6089 79.7614 68.6169C81.3454 69.6249 83.1694 70.1289 85.2334 70.1289ZM127.325 77.9769C123.965 77.9769 120.941 77.4249 118.253 76.3209C115.613 75.1689 113.453 73.5369 111.773 71.4249L117.533 66.4569C118.973 68.0889 120.581 69.2649 122.357 69.9849C124.133 70.7049 126.005 71.0649 127.973 71.0649C128.789 71.0649 129.509 70.9689 130.133 70.7769C130.805 70.5849 131.381 70.2969 131.861 69.9129C132.341 69.5289 132.701 69.0969 132.941 68.6169C133.229 68.0889 133.373 67.5129 133.373 66.8889C133.373 65.7369 132.941 64.8249 132.077 64.1529C131.597 63.8169 130.829 63.4569 129.773 63.0729C128.765 62.6889 127.445 62.3049 125.813 61.9209C123.221 61.2489 121.061 60.4809 119.333 59.6169C117.605 58.7049 116.261 57.6969 115.301 56.5929C114.485 55.6809 113.861 54.6489 113.429 53.4969C113.045 52.3449 112.853 51.0969 112.853 49.7529C112.853 48.0729 113.213 46.5609 113.933 45.2169C114.701 43.8249 115.733 42.6249 117.029 41.6169C118.325 40.6089 119.837 39.8409 121.565 39.3129C123.293 38.7849 125.093 38.5209 126.965 38.5209C128.885 38.5209 130.733 38.7609 132.509 39.2409C134.333 39.7209 136.013 40.4169 137.549 41.3289C139.133 42.1929 140.477 43.2489 141.581 44.4969L136.685 49.8969C135.773 49.0329 134.765 48.2649 133.661 47.5929C132.605 46.9209 131.525 46.3929 130.421 46.0089C129.317 45.5769 128.285 45.3609 127.325 45.3609C126.413 45.3609 125.597 45.4569 124.877 45.6489C124.157 45.7929 123.557 46.0329 123.077 46.3689C122.597 46.7049 122.213 47.1369 121.925 47.6649C121.685 48.1449 121.565 48.7209 121.565 49.3929C121.613 49.9689 121.757 50.5209 121.997 51.0489C122.285 51.5289 122.669 51.9369 123.149 52.2729C123.677 52.6089 124.469 52.9929 125.525 53.4249C126.581 53.8569 127.949 54.2649 129.629 54.6489C131.981 55.2729 133.949 55.9689 135.533 56.7369C137.117 57.5049 138.365 58.3929 139.277 59.4009C140.189 60.2649 140.837 61.2729 141.221 62.4249C141.605 63.5769 141.797 64.8489 141.797 66.2409C141.797 68.4969 141.149 70.5129 139.853 72.2889C138.605 74.0649 136.877 75.4569 134.669 76.4649C132.509 77.4729 130.061 77.9769 127.325 77.9769ZM167.382 77.9769C163.398 77.9769 159.87 77.1369 156.798 75.4569C153.774 73.7769 151.398 71.4969 149.67 68.6169C147.99 65.6889 147.15 62.3529 147.15 58.6089C147.15 55.6329 147.63 52.9209 148.59 50.4729C149.55 48.0249 150.87 45.9129 152.55 44.1369C154.278 42.3129 156.318 40.9209 158.67 39.9609C161.07 38.9529 163.686 38.4489 166.518 38.4489C169.014 38.4489 171.342 38.9289 173.502 39.8889C175.662 40.8489 177.534 42.1689 179.118 43.8489C180.702 45.4809 181.902 47.4489 182.718 49.7529C183.582 52.0089 183.99 54.4809 183.942 57.1689L183.87 60.2649H153.126L151.47 54.2169H176.454L175.302 55.4409V53.8569C175.158 52.3689 174.678 51.0729 173.862 49.9689C173.046 48.8169 171.99 47.9289 170.694 47.3049C169.446 46.6329 168.054 46.2969 166.518 46.2969C164.166 46.2969 162.174 46.7529 160.542 47.6649C158.958 48.5769 157.758 49.8969 156.942 51.6249C156.126 53.3049 155.718 55.4169 155.718 57.9609C155.718 60.4089 156.222 62.5449 157.23 64.3689C158.286 66.1929 159.75 67.6089 161.622 68.6169C163.542 69.5769 165.774 70.0569 168.318 70.0569C170.094 70.0569 171.726 69.7689 173.214 69.1929C174.702 68.6169 176.31 67.5849 178.038 66.0969L182.43 72.2169C181.134 73.4169 179.646 74.4489 177.966 75.3129C176.334 76.1289 174.606 76.7769 172.782 77.2569C170.958 77.7369 169.158 77.9769 167.382 77.9769Z" fill="#8571B6"/>
<path d="M70 0H142.727V16.8182H137.159V6.36368H75.5682V16.8182H70V0Z" fill="#52443C"/>
<path d="M256.904 83.12V32.72H264.68V83.12H256.904ZM224 83.12V32.72H231.776V83.12H224ZM227.384 61.736V54.248H260.36V61.736H227.384ZM271.357 83.12L290.869 32.72H298.789L318.157 83.12H309.877L298.357 52.736C298.213 52.4 297.925 51.584 297.493 50.288C297.109 48.992 296.653 47.552 296.125 45.968C295.597 44.384 295.117 42.944 294.685 41.648C294.253 40.304 293.965 39.44 293.821 39.056L295.477 38.984C295.189 39.8 294.829 40.832 294.397 42.08C294.013 43.328 293.581 44.648 293.101 46.04C292.669 47.432 292.237 48.752 291.805 50C291.373 51.2 291.013 52.208 290.725 53.024L279.277 83.12H271.357ZM279.997 70.592L282.877 63.104H305.773L309.085 70.592H279.997ZM343.909 83.84C340.405 83.84 337.189 83.216 334.261 81.968C331.333 80.72 328.789 78.944 326.629 76.64C324.469 74.288 322.789 71.528 321.589 68.36C320.437 65.192 319.861 61.712 319.861 57.92C319.861 54.32 320.485 50.984 321.733 47.912C323.029 44.792 324.805 42.056 327.061 39.704C329.317 37.352 331.933 35.528 334.909 34.232C337.885 32.936 341.101 32.288 344.557 32.288C347.005 32.288 349.381 32.672 351.685 33.44C354.037 34.16 356.149 35.192 358.021 36.536C359.941 37.832 361.501 39.32 362.701 41L357.517 46.4C356.125 45.008 354.709 43.856 353.269 42.944C351.877 41.984 350.437 41.264 348.949 40.784C347.509 40.304 346.045 40.064 344.557 40.064C342.205 40.064 339.997 40.52 337.933 41.432C335.917 42.296 334.141 43.52 332.605 45.104C331.117 46.688 329.941 48.584 329.077 50.792C328.213 52.952 327.781 55.328 327.781 57.92C327.781 60.656 328.189 63.152 329.005 65.408C329.869 67.616 331.069 69.512 332.605 71.096C334.141 72.68 335.965 73.904 338.077 74.768C340.237 75.584 342.613 75.992 345.205 75.992C346.789 75.992 348.349 75.776 349.885 75.344C351.421 74.912 352.861 74.288 354.205 73.472C355.549 72.656 356.773 71.696 357.877 70.592L361.765 76.928C360.661 78.224 359.149 79.4 357.229 80.456C355.357 81.512 353.245 82.352 350.893 82.976C348.589 83.552 346.261 83.84 343.909 83.84ZM376.648 67.856L376.216 59.144L402.64 32.72H412.864L376.648 67.856ZM370.168 83.12V32.72H377.944V83.12H370.168ZM403.576 83.12L384.28 57.344L390.04 52.376L413.296 83.12H403.576ZM435.592 83.84C432.856 83.84 430.312 83.48 427.96 82.76C425.656 82.04 423.544 80.96 421.624 79.52C419.752 78.032 418.072 76.208 416.584 74.048L421.912 67.928C424.264 71.288 426.52 73.616 428.68 74.912C430.84 76.208 433.408 76.856 436.384 76.856C438.208 76.856 439.864 76.568 441.352 75.992C442.84 75.416 444.016 74.624 444.88 73.616C445.744 72.608 446.176 71.456 446.176 70.16C446.176 69.296 446.032 68.48 445.744 67.712C445.456 66.944 445 66.248 444.376 65.624C443.8 65 443.032 64.424 442.072 63.896C441.16 63.368 440.08 62.912 438.832 62.528C437.584 62.096 436.144 61.736 434.512 61.448C431.92 60.92 429.664 60.224 427.744 59.36C425.824 58.496 424.216 57.416 422.92 56.12C421.624 54.824 420.664 53.36 420.04 51.728C419.416 50.048 419.104 48.176 419.104 46.112C419.104 44.096 419.536 42.224 420.4 40.496C421.312 38.768 422.536 37.28 424.072 36.032C425.656 34.736 427.504 33.752 429.616 33.08C431.728 32.36 434.008 32 436.456 32C439.048 32 441.424 32.336 443.584 33.008C445.744 33.68 447.664 34.688 449.344 36.032C451.024 37.328 452.416 38.936 453.52 40.856L448.048 46.256C447.088 44.672 446.008 43.352 444.808 42.296C443.608 41.192 442.288 40.376 440.848 39.848C439.408 39.272 437.872 38.984 436.24 38.984C434.368 38.984 432.736 39.272 431.344 39.848C429.952 40.424 428.848 41.24 428.032 42.296C427.264 43.304 426.88 44.504 426.88 45.896C426.88 46.904 427.072 47.84 427.456 48.704C427.84 49.52 428.416 50.264 429.184 50.936C430 51.56 431.08 52.136 432.424 52.664C433.768 53.144 435.376 53.576 437.248 53.96C439.888 54.536 442.24 55.28 444.304 56.192C446.368 57.056 448.12 58.088 449.56 59.288C451 60.488 452.08 61.832 452.8 63.32C453.568 64.808 453.952 66.416 453.952 68.144C453.952 71.36 453.208 74.144 451.72 76.496C450.232 78.848 448.12 80.672 445.384 81.968C442.648 83.216 439.384 83.84 435.592 83.84Z" fill="#52443C"/>
</svg>



