<svg width="104" height="55" viewBox="0 0 104 55" fill="none" xmlns="http://www.w3.org/2000/svg">
<g clip-path="url(#clip0_7744_43)">
<path d="M0.304443 43.6755V12.2397H9.92825V15.7719H4.17527L4.38835 15.4893V40.5673L4.03322 40.1434H9.92825V43.6755H0.304443ZM22.1691 37.3278C20.3671 37.3278 18.7478 36.8919 17.311 36.0199C15.8743 35.148 14.742 33.9612 13.914 32.4596C13.0861 30.9579 12.6721 29.2625 12.6721 27.3733C12.6721 25.4842 13.0861 23.7887 13.914 22.2871C14.742 20.7854 15.8743 19.5986 17.311 18.7267C18.7478 17.8548 20.3671 17.4188 22.1691 17.4188C23.898 17.4188 25.4687 17.7458 26.8811 18.3997C28.2934 19.0537 29.3892 19.9619 30.1685 21.1245L27.6847 24.1036C27.3194 23.595 26.8567 23.1348 26.2966 22.723C25.7366 22.3113 25.1399 21.9843 24.5068 21.7421C23.8737 21.4999 23.2406 21.3788 22.6074 21.3788C21.536 21.3788 20.5741 21.6453 19.7218 22.1781C18.8939 22.6867 18.2364 23.4012 17.7494 24.3216C17.2623 25.2177 17.0188 26.235 17.0188 27.3733C17.0188 28.5117 17.2623 29.5289 17.7494 30.4251C18.2607 31.3212 18.9426 32.0357 19.7949 32.5686C20.6471 33.1014 21.5968 33.3678 22.6439 33.3678C23.2771 33.3678 23.8859 33.2709 24.4703 33.0772C25.0791 32.8592 25.6513 32.5564 26.1871 32.1689C26.7228 31.7814 27.222 31.297 27.6847 30.7157L30.1685 33.7311C29.3405 34.7968 28.196 35.6687 26.735 36.3469C25.2982 37.0008 23.7763 37.3278 22.1691 37.3278ZM40.1426 37.3278C38.5598 37.3278 37.123 36.8919 35.8324 36.0199C34.5418 35.148 33.5069 33.9612 32.7276 32.4596C31.9484 30.9579 31.5588 29.2504 31.5588 27.337C31.5588 25.4236 31.9484 23.7161 32.7276 22.2144C33.5069 20.7128 34.5662 19.5381 35.9055 18.6904C37.2448 17.8427 38.7546 17.4188 40.4348 17.4188C41.4088 17.4188 42.2977 17.5641 43.1013 17.8548C43.9048 18.1212 44.611 18.5087 45.2198 19.0174C45.8286 19.526 46.3278 20.1073 46.7174 20.7612C47.1314 21.4152 47.4114 22.1175 47.5575 22.8684L46.5713 22.6141V17.8185H51.1005V36.9645H46.5348V32.3869L47.5941 32.2053C47.4236 32.8592 47.107 33.501 46.6444 34.1308C46.206 34.7363 45.646 35.2812 44.9641 35.7656C44.3066 36.2258 43.5639 36.6012 42.736 36.8919C41.9324 37.1825 41.0679 37.3278 40.1426 37.3278ZM41.3845 33.3678C42.4316 33.3678 43.3569 33.1135 44.1605 32.6049C44.9641 32.0963 45.5851 31.3939 46.0234 30.4977C46.4861 29.5774 46.7174 28.5238 46.7174 27.337C46.7174 26.1744 46.4861 25.1451 46.0234 24.2489C45.5851 23.3528 44.9641 22.6504 44.1605 22.1418C43.3569 21.6331 42.4316 21.3788 41.3845 21.3788C40.3374 21.3788 39.412 21.6331 38.6085 22.1418C37.8292 22.6504 37.2204 23.3528 36.7821 24.2489C36.3438 25.1451 36.1246 26.1744 36.1246 27.337C36.1246 28.5238 36.3438 29.5774 36.7821 30.4977C37.2204 31.3939 37.8292 32.0963 38.6085 32.6049C39.412 33.1135 40.3374 33.3678 41.3845 33.3678ZM62.7379 37.3278C61.0333 37.3278 59.4992 37.0493 58.1355 36.4922C56.7962 35.9109 55.7004 35.0875 54.8481 34.0218L57.7702 31.515C58.5008 32.3385 59.3165 32.9319 60.2175 33.2952C61.1185 33.6585 62.0682 33.8401 63.0666 33.8401C63.4806 33.8401 63.8459 33.7917 64.1624 33.6948C64.5033 33.5979 64.7956 33.4526 65.0391 33.2588C65.2826 33.0651 65.4652 32.8471 65.587 32.6049C65.7331 32.3385 65.8061 32.0478 65.8061 31.733C65.8061 31.1517 65.587 30.6915 65.1486 30.3524C64.9051 30.1829 64.5155 30.0012 63.9798 29.8075C63.4684 29.6137 62.7988 29.4199 61.9708 29.2262C60.6558 28.8871 59.56 28.4996 58.6834 28.0636C57.8068 27.6034 57.1249 27.0948 56.6379 26.5377C56.2239 26.0775 55.9074 25.5568 55.6882 24.9755C55.4934 24.3942 55.396 23.7645 55.396 23.0864C55.396 22.2386 55.5786 21.4757 55.9439 20.7975C56.3335 20.0952 56.8571 19.4897 57.5145 18.981C58.172 18.4724 58.9391 18.0849 59.8157 17.8185C60.6924 17.552 61.6055 17.4188 62.5552 17.4188C63.5293 17.4188 64.4668 17.5399 65.3678 17.7821C66.2932 18.0243 67.1454 18.3755 67.9247 18.8357C68.7283 19.2717 69.4101 19.8045 69.9702 20.4342L67.4864 23.159C67.0237 22.723 66.5123 22.3355 65.9522 21.9964C65.4165 21.6574 64.8686 21.3909 64.3085 21.1972C63.7485 20.9792 63.2249 20.8702 62.7379 20.8702C62.2752 20.8702 61.8612 20.9186 61.496 21.0155C61.1307 21.0882 60.8263 21.2093 60.5828 21.3788C60.3393 21.5484 60.1445 21.7664 59.9984 22.0328C59.8766 22.275 59.8157 22.5656 59.8157 22.9047C59.8401 23.1953 59.9131 23.4739 60.0349 23.7403C60.181 23.9825 60.3758 24.1884 60.6193 24.3579C60.8872 24.5275 61.289 24.7212 61.8247 24.9392C62.3604 25.1572 63.0544 25.363 63.9067 25.5568C65.0999 25.8717 66.0983 26.2229 66.9019 26.6104C67.7055 26.9979 68.3387 27.446 68.8013 27.9546C69.264 28.3906 69.5927 28.8992 69.7876 29.4805C69.9824 30.0618 70.0798 30.7036 70.0798 31.406C70.0798 32.5443 69.751 33.5616 69.0935 34.4577C68.4604 35.3539 67.5838 36.0563 66.4636 36.5649C65.3678 37.0735 64.1259 37.3278 62.7379 37.3278ZM83.06 37.3278C81.0388 37.3278 79.249 36.904 77.6905 36.0563C76.1564 35.2086 74.951 34.0581 74.0744 32.6049C73.2221 31.1275 72.7959 29.4441 72.7959 27.555C72.7959 26.0533 73.0395 24.6849 73.5265 23.4497C74.0135 22.2144 74.6832 21.1487 75.5355 20.2526C76.4121 19.3322 77.447 18.6298 78.6402 18.1454C79.8578 17.6368 81.1849 17.3825 82.6217 17.3825C83.8879 17.3825 85.069 17.6247 86.1648 18.1091C87.2606 18.5935 88.2103 19.2596 89.0139 20.1073C89.8174 20.9308 90.4262 21.9238 90.8402 23.0864C91.2785 24.2247 91.4855 25.472 91.4612 26.8284L91.4246 28.3906H75.8277L74.9876 25.3388H87.6624L87.0779 25.9564V25.1572C87.0049 24.4064 86.7614 23.7524 86.3474 23.1953C85.9334 22.6141 85.3977 22.166 84.7402 21.8511C84.1071 21.512 83.4009 21.3425 82.6217 21.3425C81.4285 21.3425 80.4179 21.5726 79.5899 22.0328C78.7863 22.493 78.1776 23.159 77.7636 24.0309C77.3496 24.8786 77.1426 25.9443 77.1426 27.228C77.1426 28.4632 77.3983 29.541 77.9097 30.4614C78.4454 31.3818 79.1881 32.0963 80.1378 32.6049C81.1119 33.0893 82.2442 33.3315 83.5348 33.3315C84.4358 33.3315 85.2638 33.1862 86.0187 32.8955C86.7735 32.6049 87.5893 32.0842 88.466 31.3333L90.6941 34.4214C90.0366 35.0269 89.2817 35.5476 88.4294 35.9836C87.6015 36.3953 86.7248 36.7223 85.7995 36.9645C84.8741 37.2067 83.961 37.3278 83.06 37.3278ZM94.1393 43.6755V40.1434H99.8923L99.6792 40.426V15.348L100.034 15.7719H94.1393V12.2397H103.763V43.6755H94.1393Z" fill="#52443C"/>
<path d="M29.4219 53.9152V41.5528H31.3396V53.9152H29.4219ZM21.3074 53.9152V41.5528H23.225V53.9152H21.3074ZM22.1419 48.67V46.8333H30.2742V48.67H22.1419ZM34.4068 53.9152L39.2187 41.5528H41.1719L45.9483 53.9152H43.9063L41.0653 46.4624C41.0298 46.38 40.9588 46.1798 40.8523 45.8619C40.7576 45.544 40.6451 45.1908 40.5149 44.8023C40.3847 44.4138 40.2663 44.0606 40.1598 43.7427C40.0532 43.413 39.9822 43.2011 39.9467 43.1069L40.3551 43.0892C40.2841 43.2894 40.1953 43.5425 40.0888 43.8486C39.994 44.1548 39.8875 44.4785 39.7691 44.82C39.6626 45.1614 39.5561 45.4852 39.4495 45.7913C39.343 46.0856 39.2542 46.3329 39.1832 46.533L36.36 53.9152H34.4068ZM36.5375 50.8422L37.2478 49.0055H42.8942L43.711 50.8422H36.5375ZM53.7194 54.0918C52.8554 54.0918 52.0625 53.9389 51.34 53.6326C50.6181 53.3263 49.9906 52.8908 49.4579 52.3257C48.9253 51.749 48.511 51.0718 48.2151 50.2947C47.931 49.5177 47.7889 48.6641 47.7889 47.734C47.7889 46.8509 47.9428 46.0326 48.2506 45.2791C48.5702 44.5138 49.0084 43.8427 49.5644 43.2658C50.121 42.6889 50.7663 42.2415 51.4998 41.9236C52.2339 41.6057 53.0269 41.4468 53.8792 41.4468C54.4829 41.4468 55.0688 41.541 55.637 41.7294C56.2174 41.906 56.7379 42.1591 57.1995 42.4888C57.6734 42.8067 58.0579 43.1716 58.3537 43.5837L57.0753 44.9083C56.7323 44.5668 56.3828 44.2842 56.0276 44.0606C55.6847 43.8251 55.3296 43.6485 54.9623 43.5307C54.6072 43.413 54.2465 43.3541 53.8792 43.3541C53.2993 43.3541 52.7549 43.466 52.2456 43.6897C51.7484 43.9016 51.3106 44.2018 50.9316 44.5904C50.5649 44.9789 50.2747 45.444 50.0616 45.9856C49.8485 46.5154 49.742 47.0982 49.742 47.734C49.742 48.4051 49.8429 49.0173 50.0438 49.5707C50.2569 50.1121 50.5532 50.5773 50.9316 50.9658C51.3106 51.3544 51.7606 51.6546 52.2811 51.8665C52.8138 52.0668 53.3997 52.1668 54.039 52.1668C54.4296 52.1668 54.8146 52.1138 55.1931 52.0078C55.5721 51.9018 55.9272 51.749 56.2585 51.5486C56.5903 51.3483 56.8921 51.1132 57.164 50.8422L58.1229 52.3963C57.8509 52.7142 57.4781 53.0029 57.0042 53.2617C56.5426 53.5206 56.0221 53.7269 55.4417 53.8798C54.8735 54.0211 54.2997 54.0918 53.7194 54.0918ZM63.2138 50.1711L63.1073 48.0342L69.6237 41.5528H72.1451L63.2138 50.1711ZM61.6157 53.9152V41.5528H63.5334V53.9152H61.6157ZM69.8546 53.9152L65.0959 47.5927L66.5164 46.3741L72.2516 53.9152H69.8546ZM79.1704 54.0918C78.4957 54.0918 77.8682 54.0035 77.2883 53.8268C76.7201 53.6502 76.1991 53.3853 75.7258 53.0321C75.2641 52.6673 74.8496 52.2197 74.4828 51.6899L75.7968 50.1888C76.3766 51.0128 76.9332 51.584 77.4659 51.9018C77.9985 52.2197 78.6317 52.3787 79.3658 52.3787C79.8157 52.3787 80.2241 52.308 80.5909 52.1668C80.9577 52.0255 81.2479 51.8312 81.461 51.584C81.674 51.3367 81.7806 51.0541 81.7806 50.7363C81.7806 50.5243 81.7451 50.324 81.674 50.1358C81.603 49.9476 81.4904 49.7767 81.3367 49.6236C81.1946 49.4706 81.0054 49.3293 80.7685 49.1998C80.5437 49.0703 80.2774 48.9584 79.9695 48.8642C79.6615 48.7583 79.3064 48.67 78.9041 48.5993C78.2649 48.4698 77.7084 48.2991 77.235 48.0872C76.7617 47.8752 76.365 47.6103 76.0454 47.2924C75.7258 46.9746 75.4888 46.6154 75.3351 46.2151C75.1814 45.8031 75.1043 45.3439 75.1043 44.8376C75.1043 44.3431 75.2108 43.884 75.4239 43.4601C75.6486 43.0363 75.9505 42.6713 76.3295 42.3652C76.7201 42.0473 77.1757 41.8059 77.6967 41.6411C78.2177 41.4645 78.7798 41.3762 79.3835 41.3762C80.0227 41.3762 80.6087 41.4586 81.1414 41.6234C81.674 41.7883 82.1474 42.0355 82.5619 42.3652C82.9763 42.683 83.3193 43.0775 83.5917 43.5484L82.2422 44.8729C82.0053 44.4844 81.739 44.1606 81.4432 43.9016C81.1475 43.6308 80.8218 43.4307 80.4666 43.3012C80.1115 43.1599 79.7325 43.0892 79.3302 43.0892C78.8686 43.0892 78.4663 43.1599 78.1228 43.3012C77.7794 43.4424 77.5075 43.6426 77.306 43.9016C77.1168 44.1489 77.022 44.4432 77.022 44.7846C77.022 45.0319 77.0691 45.2615 77.164 45.4734C77.2589 45.6736 77.4009 45.856 77.5901 46.0209C77.7915 46.1739 78.0579 46.3152 78.3892 46.4447C78.7204 46.5625 79.1172 46.6684 79.5788 46.7626C80.2297 46.9039 80.8101 47.0864 81.3189 47.3101C81.8278 47.522 82.26 47.7752 82.6151 48.0695C82.9702 48.3638 83.2366 48.6935 83.4141 49.0585C83.6034 49.4235 83.6982 49.8179 83.6982 50.2418C83.6982 51.0304 83.5146 51.7136 83.1478 52.2904C82.781 52.8671 82.26 53.3147 81.5853 53.6326C80.9105 53.9389 80.1054 54.0918 79.1704 54.0918Z" fill="#52443C"/>
<path d="M33.4829 0H70.2492V9.41802H66.8334V4.09977H36.8987V9.41802H33.4829V0Z" fill="#52443C"/>
</g>
<defs>
<clipPath id="clip0_7744_43">
<rect width="104" height="55" fill="white"/>
</clipPath>
</defs>
</svg>

