<svg width="490" height="70" viewBox="0 0 490 70" fill="none" xmlns="http://www.w3.org/2000/svg">
<g clip-path="url(#clip0_7668_74)">
<path d="M82.8945 8.65901C82.282 9.05129 81.6343 9.66186 80.9503 10.493C80.0196 11.6192 79.0785 12.9519 78.1238 14.4921C77.17 16.0341 76.3265 17.6105 75.592 19.2248L57.6844 57.9678L43.8873 26.2688L28.2556 57.9678L10.7145 19.0788C10.0292 17.5138 9.19776 15.9238 8.21898 14.3086C7.24007 12.6943 6.33497 11.3991 5.50346 10.4207C4.81836 9.5891 4.08363 8.96452 3.30158 8.5492C2.51865 8.13432 1.41771 7.72984 0 7.33846V6.60498H26.9335V7.33846C25.8568 7.77819 25.0869 8.28075 24.6216 8.8425C24.1565 9.40561 23.9244 10.1522 23.9244 11.08C23.9244 11.8632 24.1454 12.768 24.5855 13.7952L36.0345 40.0643L43.52 25.022L39.1899 14.8957C37.9175 11.9613 36.7188 9.93121 35.5936 8.80499C35.202 8.41497 34.7499 8.10901 34.2363 7.88937C33.7228 7.66838 33.0001 7.48444 32.0708 7.33846V6.60498H58.6391V7.33846C55.9974 7.77819 54.6757 9.19772 54.6757 11.5939C54.6757 12.1809 54.8095 12.9881 55.0789 14.0162C55.3474 15.043 55.7036 16.0956 56.1439 17.1707L65.3174 38.9636L67.1517 35.2207C69.0118 31.3577 70.4425 27.7864 71.4455 24.5083C72.4477 21.2314 72.9503 18.3439 72.9503 15.8502C72.9503 13.0134 72.3374 10.836 71.1155 9.31974C70.6744 8.78194 70.1853 8.37836 69.6474 8.10901C69.1085 7.84102 68.3012 7.58341 67.2254 7.33846V6.60498H85.6465V7.33846C84.4233 7.82746 83.5061 8.26854 82.8945 8.65901Z" fill="#201D1C"/>
<path d="M111.007 44.2096C110.664 45.0167 110.321 45.7393 109.98 46.3746C109.637 47.0102 109.257 47.6217 108.841 48.2087C108.426 48.7957 107.948 49.4315 107.41 50.1167C105.697 52.1707 103.642 53.7484 101.246 54.8495C98.8484 55.9498 96.2054 56.4999 93.3192 56.4999C90.5785 56.4999 88.0228 56.0225 85.6505 55.0691C83.2769 54.1145 81.2215 52.794 79.4848 51.106C77.7481 49.4193 76.3911 47.4268 75.412 45.1267C74.432 42.8285 73.9438 40.3335 73.9438 37.6417C73.9438 34.9038 74.4587 32.335 75.4857 29.938C76.5132 27.5421 77.9317 25.4506 79.742 23.6646C81.5524 21.879 83.6684 20.4726 86.0903 19.4458C88.5119 18.4177 91.1174 17.9052 93.9068 17.9052C96.3528 17.9052 98.6039 18.2712 100.658 19.0047C102.713 19.7391 104.523 20.7917 106.089 22.1597C107.654 23.5308 108.939 25.1933 109.942 27.1495C110.945 29.1067 111.594 31.2839 111.888 33.6799H87.5947C87.6431 42.8285 91.729 47.4016 99.851 47.4016C102.934 47.4016 105.551 46.644 107.704 45.1267C108.535 44.589 109.195 44.0391 109.686 43.475C110.174 42.9143 110.787 42.0698 111.52 40.9449L112.181 41.2374C111.74 42.4118 111.349 43.4025 111.007 44.2096ZM98.8968 30.6484C98.8968 30.0556 98.8846 29.5256 98.8602 29.055C98.8349 28.5854 98.8109 28.1522 98.7865 27.7574C98.7625 27.3627 98.725 26.9185 98.6766 26.4227C98.4809 23.7541 97.9914 21.813 97.2094 20.6014C96.4264 19.392 95.3013 18.7846 93.8332 18.7846C91.7787 18.7846 90.2246 19.9845 89.1732 22.3816C88.1204 24.78 87.5947 28.2535 87.5947 32.7992H98.8968V30.6484Z" fill="#201D1C"/>
<path d="M152.342 55.2159C150.484 56.1198 148.629 56.5726 146.774 56.5726C142.817 56.5726 140.376 54.2252 139.45 49.5288C138.57 50.7525 137.837 51.6573 137.251 52.2448C136.665 52.8306 135.933 53.4181 135.054 54.0052C132.612 55.6679 129.682 56.5002 126.265 56.5002C123.189 56.5002 120.673 55.7655 118.72 54.2988C116.767 52.8306 115.792 50.9 115.792 48.5015C115.792 45.4194 117.503 42.9015 120.929 40.9442C125.379 38.4492 131.545 36.0532 139.423 33.753V29.9373C139.423 26.3185 139.25 23.8973 138.909 22.6735C138.663 21.794 138.199 21.0967 137.515 20.5833C136.829 20.0686 136.022 19.8123 135.093 19.8123C134.407 19.8123 133.735 19.9343 133.074 20.1784C132.414 20.4247 131.838 20.7415 131.349 21.1329C130.714 21.6716 130.237 22.3797 129.919 23.2606C129.6 24.1414 129.319 25.3652 129.075 26.93L128.781 29.1312C128.488 31.479 127.644 33.3263 126.25 34.6711C124.855 36.0169 123.131 36.6888 121.075 36.6888C119.558 36.6888 118.323 36.2116 117.369 35.2583C116.415 34.3038 115.938 33.0689 115.938 31.5516C115.938 27.9824 118.774 24.9 124.451 22.3074C127.485 20.8888 130.628 19.8001 133.883 19.0413C137.136 18.2839 140.126 17.9047 142.853 17.9047C145.674 17.9047 147.889 18.5641 149.493 19.886C150.563 20.7659 151.306 21.8058 151.719 23.0043C152.132 24.2028 152.339 25.8787 152.339 28.0295V44.9071C152.339 46.3254 152.364 47.3404 152.413 47.952C152.462 48.5644 152.608 49.0891 152.853 49.5288C153.048 50.0191 153.391 50.3983 153.88 50.6668C154.37 50.9362 154.933 51.0703 155.569 51.0703C156.01 51.0703 156.438 51.0098 156.853 50.8867C157.268 50.7647 157.819 50.5086 158.504 50.1158L158.945 50.6306C156.4 52.7836 154.2 54.3107 152.342 55.2159ZM139.423 34.6337C138.003 35.1241 136.952 35.5035 136.267 35.7706C135.582 36.0412 134.897 36.4446 134.213 36.9824C132.988 37.8147 132.108 38.8418 131.57 40.0635C131.032 41.2874 130.762 42.8278 130.762 44.6861C130.762 46.8877 131.13 48.5752 131.864 49.7498C132.598 50.9229 133.649 51.5101 135.019 51.5101C136.389 51.5101 137.466 51.0219 138.249 50.0436C139.031 49.0647 139.423 47.7197 139.423 46.0069V34.6337Z" fill="#201D1C"/>
<path d="M158.698 55.5459V54.6655C159.97 54.5682 160.911 54.4101 161.524 54.189C162.135 53.9703 162.661 53.5921 163.102 53.0552C163.443 52.5684 163.688 51.849 163.835 50.8968C163.982 49.946 164.056 48.3231 164.056 46.0304V15.9542C164.056 13.7591 163.957 12.1376 163.762 11.0886C163.566 10.0397 163.175 9.12454 162.588 8.34406C162.048 7.61283 161.425 7.08814 160.716 6.77133C160.007 6.45498 159.04 6.27104 157.817 6.22178L157.671 5.41688C158.649 5.2221 159.492 5.05308 160.203 4.90529C160.911 4.75932 161.608 4.60114 162.295 4.42941C162.979 4.25903 163.723 4.07554 164.528 3.88076C165.331 3.68598 166.293 3.44193 167.412 3.14863C168.579 2.85578 169.554 2.59953 170.331 2.37989C171.11 2.1607 171.827 1.94196 172.485 1.72232C173.14 1.50133 173.81 1.28259 174.491 1.0625C175.172 0.843765 175.999 0.588423 176.972 0.294667V46.0304C176.972 47.153 176.984 48.1038 177.009 48.8848C177.033 49.6653 177.083 50.3119 177.155 50.8232C177.229 51.3357 177.327 51.7622 177.449 52.1043C177.571 52.4464 177.731 52.7642 177.927 53.0552C178.317 53.5921 178.818 53.9703 179.431 54.189C180.043 54.4101 181.009 54.5682 182.33 54.6655V55.5459H158.698Z" fill="#201D1C"/>
<path d="M205.998 55.2502C204.016 56.0827 202.003 56.5002 199.957 56.5002C197.086 56.5002 194.677 55.7154 192.733 54.1475C191.515 53.1678 190.664 51.9417 190.178 50.4701C189.692 49.0013 189.449 46.9166 189.449 44.2202V22.2338H180.422C181.449 21.7931 182.354 21.3783 183.137 20.986C183.919 20.5955 184.641 20.2041 185.301 19.8128C185.962 19.4214 186.623 19.0056 187.283 18.5645C187.944 18.1248 188.713 17.587 189.594 16.9502C191.784 15.3364 193.753 13.6981 195.505 12.0341C196.235 11.3503 196.879 10.7266 197.439 10.164C197.999 9.60178 198.532 9.01472 199.045 8.40235C199.556 7.79088 200.066 7.13106 200.578 6.42197C201.088 5.71244 201.684 4.86914 202.365 3.88935V18.8583H211.613L209.778 22.2338H202.365V43.412C202.365 46.2048 202.829 48.2028 203.759 49.4049C204.689 50.6057 206.255 51.2059 208.457 51.2059C209.141 51.2059 209.778 51.1575 210.365 51.0585C210.953 50.9605 211.71 50.7409 212.64 50.3965L213.081 50.9849C210.34 52.9951 207.98 54.4169 205.998 55.2502Z" fill="#201D1C"/>
<path d="M239.061 55.5459V54.6655C240.43 54.519 241.347 54.1032 241.812 53.4181C242.277 52.7335 242.51 51.3632 242.51 49.3092V29.9377C242.51 28.617 242.448 27.6263 242.325 26.9666C242.202 26.3058 241.943 25.7075 241.548 25.1687C241.202 24.6806 240.735 24.2878 240.143 23.9945C239.551 23.7008 238.935 23.5548 238.295 23.5548C237.457 23.5548 236.583 23.7636 235.671 24.178C234.758 24.5938 233.735 25.2909 232.603 26.2694V49.7488C232.603 50.336 232.627 50.8267 232.675 51.2167C232.723 51.6086 232.773 51.9262 232.822 52.1712C232.87 52.4166 232.943 52.6606 233.042 52.9047C233.287 53.4433 233.63 53.8469 234.069 54.1154C234.511 54.3848 235.171 54.5682 236.052 54.6655V55.5459H213.814V54.6655C215.233 54.5682 216.284 54.4101 216.97 54.189C217.655 53.9703 218.218 53.5921 218.658 53.0552C219.049 52.5188 219.319 51.7876 219.465 50.8606C219.613 49.9336 219.685 48.3231 219.685 46.0304V15.9542C219.685 13.7591 219.586 12.1376 219.392 11.0886C219.195 10.0397 218.828 9.12454 218.29 8.34406C217.752 7.61283 217.128 7.08814 216.42 6.77133C215.709 6.45498 214.718 6.27104 213.447 6.22178L213.373 5.41688C214.402 5.2221 215.306 5.03952 216.09 4.86914C216.872 4.69785 217.617 4.52702 218.327 4.35665C219.036 4.18536 219.769 4.00142 220.523 3.80709C221.277 3.61231 222.141 3.39267 223.115 3.14863C224.136 2.85578 225.023 2.61173 225.778 2.41605C226.532 2.22126 227.251 2.01563 227.931 1.79464C228.612 1.575 229.317 1.35626 230.048 1.13617C230.777 0.917431 231.628 0.635876 232.603 0.294667V25.1742C233.287 24.5893 233.874 24.1012 234.363 23.7107C234.851 23.3216 235.293 22.9795 235.684 22.6857C236.076 22.3942 236.443 22.1262 236.785 21.8822C237.127 21.639 237.518 21.3706 237.96 21.0773C239.672 19.9556 241.273 19.1376 242.767 18.6251C244.258 18.1149 245.787 17.8577 247.353 17.8577C250.045 17.8577 252.075 18.6879 253.445 20.3447C254.131 21.1749 254.62 22.1624 254.913 23.3094C255.206 24.455 255.353 26.0539 255.353 28.1024V47.4937L255.427 49.3246C255.474 50.3965 255.512 51.1662 255.537 51.6294C255.561 52.0921 255.695 52.5188 255.94 52.9091C256.234 53.4456 256.661 53.8483 257.224 54.1163C257.786 54.3848 258.631 54.5682 259.757 54.6655V55.5459H239.061Z" fill="#201D1C"/>
<path d="M293.113 48.5236C292.305 50.1656 291.179 51.5751 289.737 52.7515C288.293 53.9271 286.568 54.8463 284.563 55.5083C282.556 56.1682 280.379 56.5002 278.031 56.5002C277.346 56.5002 276.674 56.4768 276.012 56.4321C275.353 56.3869 274.629 56.2957 273.847 56.1613C273.065 56.0249 272.208 55.8527 271.279 55.6425C270.349 55.4315 269.248 55.1308 267.976 54.7386C267.144 54.4946 266.471 54.2988 265.958 54.1516C265.444 54.0053 264.967 53.8587 264.527 53.7113C264.086 53.5655 263.658 53.4181 263.243 53.2718C262.827 53.1243 262.325 52.9296 261.738 52.6846L261.005 38.0831H261.738C262.913 40.7739 264.196 43.2072 265.592 45.3832C266.985 47.5606 268.454 49.4077 269.995 50.9229C271.536 52.4406 273.101 53.6015 274.692 54.4088C276.281 55.2159 277.859 55.6195 279.425 55.6195C281.04 55.6195 282.335 55.13 283.315 54.1493C284.293 53.1695 284.783 51.8951 284.783 50.3261C284.783 48.7093 284.28 47.3866 283.278 46.3561C282.275 45.3271 280.477 44.3706 277.884 43.4886L274.288 42.2384C269.591 40.622 266.24 38.8452 264.233 36.9087C262.226 34.9736 261.224 32.6578 261.224 29.9604C261.224 28.2461 261.628 26.6529 262.435 25.1839C263.243 23.7139 264.343 22.4394 265.738 21.3606C267.133 20.2819 268.784 19.4363 270.692 18.8239C272.6 18.2111 274.68 17.9047 276.93 17.9047C278.886 17.9047 280.868 18.052 282.874 18.3444C284.88 18.6377 287.253 19.1769 289.994 19.9597L290.728 31.9926H289.994C289.21 30.0847 288.28 28.3231 287.204 26.709C286.128 25.0958 284.978 23.7017 283.755 22.5271C282.533 21.353 281.284 20.436 280.012 19.7762C278.739 19.115 277.517 18.7855 276.342 18.7855C274.923 18.7855 273.713 19.2637 272.71 20.2191C271.707 21.1758 271.205 22.3391 271.205 23.7102C271.205 26.6518 273.529 28.8818 278.178 30.4014L283.168 32.0178C287.082 33.2933 289.92 34.8129 291.682 36.5767C293.443 38.3415 294.324 40.5461 294.324 43.1929C294.324 45.105 293.92 46.8818 293.113 48.5236Z" fill="#201D1C"/>
<path d="M295.424 55.5459V54.6655C296.745 54.5682 297.711 54.4092 298.323 54.189C298.935 53.9682 299.435 53.5899 299.828 53.0511C300.218 52.5133 300.488 51.7798 300.635 50.8499C300.781 49.9214 300.855 48.3072 300.855 46.0069V33.9731C300.855 32.8977 300.83 31.9555 300.781 31.1484C300.732 30.3412 300.646 29.6441 300.525 29.058C300.402 28.4708 300.256 27.9562 300.084 27.5165C299.913 27.0766 299.68 26.6608 299.387 26.2694C298.848 25.5845 298.224 25.0842 297.515 24.7651C296.805 24.4474 295.814 24.2395 294.543 24.1418L294.469 23.4075C295.448 23.2127 296.292 23.0287 297.002 22.8575C297.711 22.6857 298.408 22.5022 299.093 22.3065C299.778 22.1118 300.525 21.9039 301.331 21.6829C302.139 21.4632 303.104 21.1826 304.23 20.8396C305.355 20.4979 306.31 20.215 307.093 19.9963C307.875 19.7753 308.609 19.5552 309.295 19.3355C309.979 19.1154 310.664 18.8836 311.349 18.6382C312.035 18.3942 312.842 18.1004 313.771 17.7574V46.0069C313.771 47.1331 313.784 48.0861 313.808 48.868C313.833 49.6522 313.881 50.2998 313.955 50.8131C314.029 51.327 314.138 51.7558 314.285 52.0976C314.432 52.4406 314.603 52.7573 314.798 53.0511C315.19 53.5899 315.692 53.9682 316.304 54.189C316.914 54.4092 317.881 54.5682 319.202 54.6655V55.5459H295.424ZM313.661 10.8234C313.246 11.7778 312.682 12.5972 311.973 13.2823C311.263 13.9675 310.432 14.5179 309.478 14.9328C308.524 15.3481 307.508 15.556 306.432 15.556C305.355 15.556 304.352 15.3481 303.423 14.9328C302.494 14.5179 301.673 13.9675 300.965 13.2823C300.256 12.5972 299.692 11.7778 299.277 10.8234C298.861 9.87023 298.653 8.85519 298.653 7.77869C298.653 6.70354 298.861 5.69934 299.277 4.77017C299.692 3.84099 300.242 3.02163 300.929 2.31255C301.613 1.60347 302.433 1.04036 303.387 0.625033C304.341 0.209254 305.355 0.00136214 306.432 0.00136214C307.508 0.00136214 308.524 0.209254 309.478 0.625033C310.432 1.04036 311.263 1.59126 311.973 2.27549C312.682 2.96152 313.246 3.77952 313.661 4.73265C314.076 5.68759 314.285 6.70354 314.285 7.77869C314.285 8.85519 314.076 9.87023 313.661 10.8234Z" fill="#201D1C"/>
<path d="M366.026 55.5459V54.6655C367.395 54.519 368.312 54.1032 368.778 53.4181C369.243 52.7335 369.475 51.3632 369.475 49.3092V30.7448C369.475 29.0338 369.413 27.7363 369.291 26.8566C369.167 25.9758 368.933 25.2667 368.587 24.728C368.291 24.2395 367.835 23.8481 367.22 23.5548C366.603 23.261 365.974 23.1137 365.333 23.1137C364.494 23.1137 363.656 23.3225 362.818 23.7383C361.98 24.1536 361.019 24.8509 359.934 25.8284V49.3092C359.934 50.336 359.982 51.1796 360.081 51.8404C360.179 52.5012 360.349 53.0281 360.595 53.4181C360.839 53.81 361.182 54.1032 361.622 54.2988C362.063 54.4946 362.65 54.6166 363.384 54.6655V55.5459H343.642V54.6655C344.326 54.6166 344.889 54.4946 345.329 54.2988C345.77 54.1032 346.111 53.81 346.356 53.4181C346.602 53.0281 346.772 52.5012 346.871 51.8404C346.968 51.1796 347.017 50.336 347.017 49.3092V30.7448C347.017 29.0822 346.956 27.8463 346.834 27.0402C346.712 26.232 346.454 25.5119 346.064 24.8752C345.77 24.3375 345.317 23.9209 344.706 23.6284C344.093 23.3347 343.421 23.1874 342.687 23.1874C341.855 23.1874 341.036 23.383 340.229 23.7744C339.421 24.1672 338.504 24.8509 337.476 25.8284V49.3092C337.476 50.336 337.525 51.1796 337.624 51.8404C337.72 52.5012 337.892 53.0281 338.138 53.4181C338.382 53.81 338.736 54.1032 339.201 54.2988C339.666 54.4946 340.24 54.6166 340.925 54.6655V55.5459H318.615V54.6655C320.033 54.5696 321.086 54.411 321.771 54.1913C322.456 53.9712 323.019 53.5943 323.459 53.0574C323.899 52.5209 324.181 51.7906 324.303 50.8652C324.425 49.9391 324.486 48.3325 324.486 46.0421V34.0555C324.486 32.9835 324.461 32.0466 324.413 31.243C324.364 30.439 324.291 29.7442 324.193 29.1592C324.095 28.5754 323.96 28.0629 323.789 27.6242C323.617 27.1865 323.386 26.7708 323.092 26.3815C322.553 25.701 321.929 25.2007 321.22 24.884C320.511 24.5671 319.519 24.3606 318.248 24.2625L318.175 23.5317C318.713 23.4346 319.189 23.3379 319.605 23.2402C320.021 23.1422 320.351 23.0455 320.596 22.9465C321.771 22.6563 322.896 22.3757 323.973 22.1077C325.048 21.8392 326.125 21.5468 327.202 21.23C328.277 20.9146 329.404 20.5725 330.578 20.2064C331.752 19.8421 333.049 19.4155 334.467 18.9274L337.476 17.9047V24.8752C337.917 24.4342 338.308 24.0438 338.651 23.7008C338.993 23.3586 339.335 23.0531 339.678 22.7838C340.02 22.5153 340.376 22.246 340.743 21.9766C341.109 21.7086 341.561 21.4027 342.1 21.0597C343.812 19.9348 345.387 19.1276 346.828 18.6382C348.268 18.1501 349.766 17.9047 351.323 17.9047C356.188 17.9047 359.058 20.2286 359.934 24.8752C360.472 24.3868 360.937 23.9579 361.329 23.5909C361.72 23.2249 362.087 22.8936 362.429 22.6003C362.771 22.3065 363.101 22.0381 363.42 21.7931C363.738 21.5491 364.092 21.3051 364.485 21.0597C366.05 19.9841 367.615 19.1882 369.181 18.6748C370.746 18.161 372.312 17.9047 373.878 17.9047C379.504 17.9047 382.318 21.3643 382.318 28.2828V47.5036L382.392 49.3313C382.441 50.4032 382.477 51.1697 382.502 51.6326C382.526 52.0967 382.66 52.5209 382.906 52.9114C383.199 53.4479 383.627 53.8492 384.19 54.1177C384.752 54.3862 385.596 54.5696 386.722 54.6655V55.5459H366.026Z" fill="#201D1C"/>
<path d="M428.66 43.6959C427.752 46.2645 426.513 48.5019 424.944 50.4101C423.372 52.3176 421.532 53.81 419.421 54.8851C417.312 55.9608 415.03 56.5008 412.577 56.5008C411.153 56.5008 409.914 56.3037 408.86 55.9133C407.804 55.5219 406.638 54.8382 405.363 53.8582V60.5613C405.363 61.674 405.374 62.6033 405.4 63.3552C405.424 64.1032 405.485 64.744 405.583 65.2764C405.68 65.8088 405.803 66.2431 405.951 66.5815C406.097 66.9201 406.291 67.2346 406.537 67.5239C406.978 68.0562 407.565 68.4301 408.299 68.6488C409.033 68.8652 410.182 69.0225 411.748 69.1205V70H385.621V69.1205C387.284 68.9733 388.483 68.7676 389.217 68.4991C389.951 68.2311 390.586 67.7548 391.125 67.072C391.614 66.5355 391.932 65.8043 392.08 64.8772C392.176 64.487 392.25 64.0956 392.3 63.7074C392.347 63.316 392.384 62.8528 392.41 62.3162C392.434 61.7797 392.446 61.0955 392.446 60.2667V34.0744C392.446 33.0013 392.421 32.0621 392.372 31.2573C392.323 30.4525 392.25 29.7574 392.152 29.1724C392.053 28.5875 391.92 28.075 391.749 27.6363C391.577 27.1966 391.345 26.7819 391.051 26.3916C390.512 25.7087 389.889 25.2085 389.181 24.8928C388.47 24.5762 387.479 24.3683 386.208 24.2693L386.134 23.5381C387.063 23.3433 387.883 23.1611 388.593 22.9908C389.301 22.819 389.999 22.6356 390.685 22.4408C391.369 22.246 392.114 22.0385 392.919 21.8185C393.722 21.5997 394.708 21.3204 395.876 20.9783C397.043 20.6362 398.016 20.3569 398.794 20.1373C399.573 19.9163 400.291 19.6975 400.948 19.4774C401.604 19.2587 402.274 19.0264 402.955 18.7824C403.635 18.5392 404.439 18.2459 405.363 17.9052V22.674C407.374 20.962 409.251 19.7391 410.993 19.0047C412.736 18.2712 414.539 17.9052 416.405 17.9052C418.416 17.9052 420.256 18.3336 421.924 19.1882C423.593 20.0446 425.028 21.2431 426.231 22.7838C427.433 24.3244 428.365 26.1596 429.028 28.2873C429.69 30.415 430.023 32.7759 430.023 35.3676C430.023 38.3518 429.568 41.1283 428.66 43.6959ZM414.524 26.2322C413.341 23.4206 411.717 22.0132 409.648 22.0132C409.057 22.0132 408.466 22.1362 407.875 22.3802C407.284 22.6256 406.447 23.0893 405.363 23.7744V52.6837C406.447 53.7616 407.653 54.2994 408.983 54.2994C411.298 54.2994 413.096 52.8564 414.377 49.9703C415.658 47.0838 416.298 43.0482 416.298 37.8626C416.298 32.922 415.706 29.046 414.524 26.2322Z" fill="#201D1C"/>
<path d="M429.141 55.5459V54.6655C430.413 54.5682 431.354 54.4101 431.967 54.189C432.578 53.9703 433.104 53.5921 433.545 53.0552C433.886 52.5684 434.132 51.849 434.278 50.8968C434.425 49.946 434.498 48.3231 434.498 46.0304V15.9542C434.498 13.7591 434.399 12.1376 434.205 11.0886C434.009 10.0397 433.617 9.12454 433.031 8.34406C432.491 7.61283 431.868 7.08814 431.159 6.77133C430.45 6.45498 429.483 6.27104 428.26 6.22178L428.114 5.41688C429.092 5.2221 429.935 5.05308 430.646 4.90529C431.354 4.75932 432.051 4.60114 432.737 4.42941C433.422 4.25903 434.166 4.07554 434.971 3.88076C435.774 3.68598 436.736 3.44193 437.855 3.14863C439.022 2.85578 439.997 2.59953 440.774 2.37989C441.553 2.1607 442.27 1.94196 442.927 1.72232C443.583 1.50133 444.253 1.28259 444.934 1.0625C445.615 0.843765 446.442 0.588423 447.415 0.294667V46.0304C447.415 47.153 447.427 48.1038 447.452 48.8848C447.476 49.6653 447.526 50.3119 447.598 50.8232C447.672 51.3357 447.77 51.7622 447.892 52.1043C448.014 52.4464 448.174 52.7642 448.369 53.0552C448.761 53.5921 449.261 53.9703 449.874 54.189C450.485 54.4101 451.452 54.5682 452.771 54.6655V55.5459H429.141Z" fill="#201D1C"/>
<path d="M488.825 44.2096C488.481 45.0167 488.142 45.7393 487.799 46.3746C487.455 47.0102 487.075 47.6217 486.659 48.2087C486.244 48.7957 485.769 49.4315 485.231 50.1167C483.518 52.1707 481.461 53.7484 479.065 54.8495C476.67 55.9498 474.025 56.4999 471.141 56.4999C468.397 56.4999 465.843 56.0225 463.47 55.0691C461.097 54.1145 459.04 52.794 457.305 51.106C455.569 49.4193 454.208 47.4268 453.232 45.1267C452.251 42.8285 451.764 40.3335 451.764 37.6417C451.764 34.9038 452.278 32.335 453.304 29.938C454.335 27.5421 455.75 25.4506 457.562 23.6646C459.37 21.879 461.486 20.4726 463.909 19.4458C466.332 18.4177 468.935 17.9052 471.724 17.9052C474.174 17.9052 476.421 18.2712 478.478 19.0047C480.534 19.7391 482.343 20.7917 483.911 22.1597C485.475 23.5308 486.759 25.1933 487.762 27.1495C488.766 29.1067 489.412 31.2839 489.706 33.6799H465.414C465.464 42.8285 469.55 47.4016 477.673 47.4016C480.756 47.4016 483.369 46.644 485.525 45.1267C486.357 44.589 487.017 44.0391 487.505 43.475C487.993 42.9143 488.608 42.0698 489.34 40.9449L490 41.2374C489.561 42.4118 489.168 43.4025 488.825 44.2096ZM476.715 30.6484C476.715 30.0556 476.706 29.5256 476.679 29.055C476.656 28.5854 476.629 28.1522 476.606 27.7574C476.584 27.3627 476.543 26.9185 476.498 26.4227C476.299 23.7541 475.811 21.813 475.029 20.6014C474.247 19.392 473.121 18.7846 471.652 18.7846C469.6 18.7846 468.045 19.9845 466.992 22.3816C465.938 24.78 465.414 28.2535 465.414 32.7992H476.715V30.6484Z" fill="#201D1C"/>
</g>
<defs>
<clipPath id="clip0_7668_74">
<rect width="490" height="70" fill="white"/>
</clipPath>
</defs>
</svg>
